# xmcd
#
# Track frame offsets:
#	150
#	14187
#	27002
#	41625
#	61552
#	76482
#	96370
#	109120
#	122612
#	137885
#
# Disc length: 2045 seconds
#
# Revision: 1
# Processed by: cddbd v1.5.1PL0 Copyright (c) Steve Scherf et al.
# Submitted via: CDex 1.50Beta5
#
DISCID=8007fb0a
DTITLE=Jos将ア Feliciano - And the Feeling's Good
DYEAR=1974
DGENRE=Miscellaneous
TTITLE0=Hard Times in el Barrio
TTITLE1=You're No Good
TTITLE2=I've Got to Convince Myself
TTITLE3=Stay With Me
TTITLE4=Differently
TTITLE5=Essence of Your Love
TTITLE6=Golden Lady
TTITLE7=Virgo
TTITLE8=Chico and the Man
TTITLE9=And the Feeling's Good
EXTD=
EXTT0=
EXTT1=
EXTT2=
EXTT3=
EXTT4=
EXTT5=
EXTT6=
EXTT7=
EXTT8=
EXTT9=
PLAYORDER=
